<?xml version="1.0" encoding="utf-8" ?>
<svg baseProfile="full" height="400.0px" version="1.1" width="640.0px" xmlns="http://www.w3.org/2000/svg" xmlns:ev="http://www.w3.org/2001/xml-events" xmlns:xlink="http://www.w3.org/1999/xlink"><defs /><rect fill="#0b3d0b" height="400.0" width="640.0" x="0" y="0" /><rect fill="none" height="368.0" stroke="#2f2" stroke-dasharray="4,4" width="608.0" x="16.0" y="16.0" /><line opacity="0.5" stroke="#ff5555" stroke-width="0.7" x1="52.32" x2="96.0" y1="368.0" y2="357.84000000000003" /><line opacity="0.5" stroke="#ff5555" stroke-width="0.7" x1="96.0" x2="96.0" y1="357.84000000000003" y2="301.84000000000003" /><line opacity="0.5" stroke="#ff5555" stroke-width="0.7" x1="96.0" x2="232.0" y1="301.84000000000003" y2="267.68" /><line opacity="0.5" stroke="#ff5555" stroke-width="0.7" x1="232.0" x2="303.12" y1="267.68" y2="115.27999999999997" /><line opacity="0.5" stroke="#ff5555" stroke-width="0.7" x1="303.12" x2="303.12" y1="115.27999999999997" y2="267.68" /><line opacity="0.5" stroke="#ff5555" stroke-width="0.7" x1="303.12" x2="32.0" y1="267.68" y2="213.84" /><line opacity="0.5" stroke="#ff5555" stroke-width="0.7" x1="32.0" x2="32.0" y1="213.84" y2="193.52" /><line opacity="0.5" stroke="#ff5555" stroke-width="0.7" x1="32.0" x2="440.0" y1="193.52" y2="208.88" /><line opacity="0.5" stroke="#ff5555" stroke-width="0.7" x1="440.0" x2="160.0" y1="208.88" y2="120.0" /><line opacity="0.5" stroke="#ff5555" stroke-width="0.7" x1="160.0" x2="220.96" y1="120.0" y2="109.83999999999997" /><line opacity="0.5" stroke="#ff5555" stroke-width="0.7" x1="220.96" x2="440.0" y1="109.83999999999997" y2="97.51999999999998" /><line opacity="0.5" stroke="#ff5555" stroke-width="0.7" x1="440.0" x2="160.0" y1="97.51999999999998" y2="80.0" /><line opacity="0.5" stroke="#ff5555" stroke-width="0.7" x1="160.0" x2="72.64" y1="80.0" y2="32.0" /><line opacity="0.5" stroke="#ff5555" stroke-width="0.7" x1="72.64" x2="224.0" y1="32.0" y2="349.84000000000003" /><line opacity="0.5" stroke="#ff5555" stroke-width="0.7" x1="224.0" x2="280.0" y1="349.84000000000003" y2="349.84000000000003" /><line opacity="0.5" stroke="#ff5555" stroke-width="0.7" x1="280.0" x2="336.0" y1="349.84000000000003" y2="349.84000000000003" /><line opacity="0.5" stroke="#ff5555" stroke-width="0.7" x1="336.0" x2="368.0" y1="349.84000000000003" y2="320.0" /><line opacity="0.5" stroke="#ff5555" stroke-width="0.7" x1="368.0" x2="388.32" y1="320.0" y2="368.0" /><line opacity="0.5" stroke="#ffcc00" stroke-width="0.7" x1="32.0" x2="96.0" y1="368.0" y2="368.0" /><line opacity="0.5" stroke="#ffcc00" stroke-width="0.7" x1="96.0" x2="32.0" y1="368.0" y2="224.0" /><line opacity="0.5" stroke="#ffcc00" stroke-width="0.7" x1="32.0" x2="440.0" y1="224.0" y2="219.04" /><line opacity="0.5" stroke="#55aaff" stroke-width="0.7" x1="32.0" x2="96.0" y1="203.68" y2="312.0" /><line opacity="0.5" stroke="#55aaff" stroke-width="0.7" x1="96.0" x2="192.0" y1="312.0" y2="312.0" /><line opacity="0.5" stroke="#55aaff" stroke-width="0.7" x1="192.0" x2="160.0" y1="312.0" y2="69.83999999999997" /><line opacity="0.5" stroke="#55aaff" stroke-width="0.7" x1="160.0" x2="220.96" y1="69.83999999999997" y2="120.0" /><line opacity="0.5" stroke="#ff88ff" stroke-width="0.7" x1="192.0" x2="303.12" y1="301.84000000000003" y2="277.84000000000003" /><line opacity="0.5" stroke="#88ff88" stroke-width="0.7" x1="303.12" x2="160.0" y1="247.36" y2="109.83999999999997" /><line opacity="0.5" stroke="#88ff88" stroke-width="0.7" x1="160.0" x2="440.0" y1="109.83999999999997" y2="128.0" /><line opacity="0.5" stroke="#88ff88" stroke-width="0.7" x1="440.0" x2="104.0" y1="128.0" y2="48.0" /><line opacity="0.5" stroke="#88ff88" stroke-width="0.7" x1="104.0" x2="32.0" y1="48.0" y2="32.0" /><line opacity="0.5" stroke="#ffffff" stroke-width="0.7" x1="232.0" x2="160.0" y1="237.2" y2="99.68" /><line opacity="0.5" stroke="#ffaa55" stroke-width="0.7" x1="232.0" x2="160.0" y1="227.04" y2="89.51999999999998" /><line opacity="0.5" stroke="#00ffcc" stroke-width="0.7" x1="220.96" x2="160.0" y1="99.68" y2="59.68000000000001" /><line opacity="0.5" stroke="#ff5555" stroke-width="0.7" x1="220.96" x2="160.0" y1="89.51999999999998" y2="49.51999999999998" /><line opacity="0.5" stroke="#ffcc00" stroke-width="0.7" x1="232.0" x2="52.32" y1="94.96000000000004" y2="32.0" /><line opacity="0.5" stroke="#ffcc00" stroke-width="0.7" x1="52.32" x2="104.0" y1="32.0" y2="37.839999999999975" /><line opacity="0.5" stroke="#55aaff" stroke-width="0.7" x1="303.12" x2="440.0" y1="94.96000000000004" y2="117.83999999999997" /><line opacity="0.5" stroke="#ff88ff" stroke-width="0.7" x1="303.12" x2="440.0" y1="105.12" y2="107.68" /><line opacity="0.5" stroke="#88ff88" stroke-width="0.7" x1="303.12" x2="440.0" y1="125.44" y2="280.0" /><line opacity="0.5" stroke="#ffffff" stroke-width="0.7" x1="303.12" x2="440.0" y1="135.60000000000002" y2="269.84000000000003" /><line opacity="0.5" stroke="#ffaa55" stroke-width="0.7" x1="303.12" x2="440.0" y1="145.76" y2="259.68" /><line opacity="0.5" stroke="#ffaa55" stroke-width="0.7" x1="440.0" x2="440.0" y1="259.68" y2="249.52" /><line opacity="0.5" stroke="#00ffcc" stroke-width="0.7" x1="303.12" x2="440.0" y1="196.56" y2="239.36" /><line opacity="0.5" stroke="#00ffcc" stroke-width="0.7" x1="440.0" x2="440.0" y1="239.36" y2="229.2" /><line opacity="0.5" stroke="#ff5555" stroke-width="0.7" x1="232.0" x2="336.0" y1="155.92" y2="360.0" /><line opacity="0.5" stroke="#ffcc00" stroke-width="0.7" x1="232.0" x2="224.0" y1="145.76" y2="360.0" /><line opacity="0.5" stroke="#55aaff" stroke-width="0.7" x1="232.0" x2="280.0" y1="135.60000000000002" y2="360.0" /><line opacity="0.5" stroke="#ff88ff" stroke-width="0.7" x1="368.0" x2="368.0" y1="368.0" y2="309.84000000000003" /><rect fill="#e8b923" height="5.6" width="5.6" x="229.2" y="285.2" /><circle cx="232.0" cy="288.0" fill="#111" r="2.0" /><circle cx="232.0" cy="277.84000000000003" fill="#e8b923" r="2.8" /><circle cx="232.0" cy="277.84000000000003" fill="#111" r="2.0" /><circle cx="232.0" cy="267.68" fill="#e8b923" r="2.8" /><circle cx="232.0" cy="267.68" fill="#111" r="2.0" /><circle cx="232.0" cy="257.52" fill="#e8b923" r="2.8" /><circle cx="232.0" cy="257.52" fill="#111" r="2.0" /><circle cx="232.0" cy="247.36" fill="#e8b923" r="2.8" /><circle cx="232.0" cy="247.36" fill="#111" r="2.0" /><circle cx="232.0" cy="237.2" fill="#e8b923" r="2.8" /><circle cx="232.0" cy="237.2" fill="#111" r="2.0" /><circle cx="232.0" cy="227.04" fill="#e8b923" r="2.8" /><circle cx="232.0" cy="227.04" fill="#111" r="2.0" /><circle cx="232.0" cy="216.88" fill="#e8b923" r="2.8" /><circle cx="232.0" cy="216.88" fill="#111" r="2.0" /><circle cx="232.0" cy="206.72" fill="#e8b923" r="2.8" /><circle cx="232.0" cy="206.72" fill="#111" r="2.0" /><circle cx="232.0" cy="196.56" fill="#e8b923" r="2.8" /><circle cx="232.0" cy="196.56" fill="#111" r="2.0" /><circle cx="232.0" cy="186.4" fill="#e8b923" r="2.8" /><circle cx="232.0" cy="186.4" fill="#111" r="2.0" /><circle cx="232.0" cy="176.24" fill="#e8b923" r="2.8" /><circle cx="232.0" cy="176.24" fill="#111" r="2.0" /><circle cx="232.0" cy="166.07999999999998" fill="#e8b923" r="2.8" /><circle cx="232.0" cy="166.07999999999998" fill="#111" r="2.0" /><circle cx="232.0" cy="155.92" fill="#e8b923" r="2.8" /><circle cx="232.0" cy="155.92" fill="#111" r="2.0" /><circle cx="232.0" cy="145.76" fill="#e8b923" r="2.8" /><circle cx="232.0" cy="145.76" fill="#111" r="2.0" /><circle cx="232.0" cy="135.60000000000002" fill="#e8b923" r="2.8" /><circle cx="232.0" cy="135.60000000000002" fill="#111" r="2.0" /><circle cx="232.0" cy="125.44" fill="#e8b923" r="2.8" /><circle cx="232.0" cy="125.44" fill="#111" r="2.0" /><circle cx="232.0" cy="115.27999999999997" fill="#e8b923" r="2.8" /><circle cx="232.0" cy="115.27999999999997" fill="#111" r="2.0" /><circle cx="232.0" cy="105.12" fill="#e8b923" r="2.8" /><circle cx="232.0" cy="105.12" fill="#111" r="2.0" /><circle cx="232.0" cy="94.96000000000004" fill="#e8b923" r="2.8" /><circle cx="232.0" cy="94.96000000000004" fill="#111" r="2.0" /><rect fill="#e8b923" height="5.6" width="5.6" x="300.32" y="285.2" /><circle cx="303.12" cy="288.0" fill="#111" r="2.0" /><circle cx="303.12" cy="277.84000000000003" fill="#e8b923" r="2.8" /><circle cx="303.12" cy="277.84000000000003" fill="#111" r="2.0" /><circle cx="303.12" cy="267.68" fill="#e8b923" r="2.8" /><circle cx="303.12" cy="267.68" fill="#111" r="2.0" /><circle cx="303.12" cy="257.52" fill="#e8b923" r="2.8" /><circle cx="303.12" cy="257.52" fill="#111" r="2.0" /><circle cx="303.12" cy="247.36" fill="#e8b923" r="2.8" /><circle cx="303.12" cy="247.36" fill="#111" r="2.0" /><circle cx="303.12" cy="237.2" fill="#e8b923" r="2.8" /><circle cx="303.12" cy="237.2" fill="#111" r="2.0" /><circle cx="303.12" cy="227.04" fill="#e8b923" r="2.8" /><circle cx="303.12" cy="227.04" fill="#111" r="2.0" /><circle cx="303.12" cy="216.88" fill="#e8b923" r="2.8" /><circle cx="303.12" cy="216.88" fill="#111" r="2.0" /><circle cx="303.12" cy="206.72" fill="#e8b923" r="2.8" /><circle cx="303.12" cy="206.72" fill="#111" r="2.0" /><circle cx="303.12" cy="196.56" fill="#e8b923" r="2.8" /><circle cx="303.12" cy="196.56" fill="#111" r="2.0" /><circle cx="303.12" cy="186.4" fill="#e8b923" r="2.8" /><circle cx="303.12" cy="186.4" fill="#111" r="2.0" /><circle cx="303.12" cy="176.24" fill="#e8b923" r="2.8" /><circle cx="303.12" cy="176.24" fill="#111" r="2.0" /><circle cx="303.12" cy="166.07999999999998" fill="#e8b923" r="2.8" /><circle cx="303.12" cy="166.07999999999998" fill="#111" r="2.0" /><circle cx="303.12" cy="155.92" fill="#e8b923" r="2.8" /><circle cx="303.12" cy="155.92" fill="#111" r="2.0" /><circle cx="303.12" cy="145.76" fill="#e8b923" r="2.8" /><circle cx="303.12" cy="145.76" fill="#111" r="2.0" /><circle cx="303.12" cy="135.60000000000002" fill="#e8b923" r="2.8" /><circle cx="303.12" cy="135.60000000000002" fill="#111" r="2.0" /><circle cx="303.12" cy="125.44" fill="#e8b923" r="2.8" /><circle cx="303.12" cy="125.44" fill="#111" r="2.0" /><circle cx="303.12" cy="115.27999999999997" fill="#e8b923" r="2.8" /><circle cx="303.12" cy="115.27999999999997" fill="#111" r="2.0" /><circle cx="303.12" cy="105.12" fill="#e8b923" r="2.8" /><circle cx="303.12" cy="105.12" fill="#111" r="2.0" /><circle cx="303.12" cy="94.96000000000004" fill="#e8b923" r="2.8" /><circle cx="303.12" cy="94.96000000000004" fill="#111" r="2.0" /><text fill="#fff" font-family="monospace" font-size="10" x="232" y="286.0">U1</text><rect fill="#e8b923" height="10.4" width="10.4" x="26.8" y="362.8" /><circle cx="32.0" cy="368.0" fill="#111" r="2.6" /><circle cx="52.32" cy="368.0" fill="#e8b923" r="5.2" /><circle cx="52.32" cy="368.0" fill="#111" r="2.6" /><text fill="#fff" font-family="monospace" font-size="10" x="32" y="366.0">J1</text><rect fill="#e8b923" height="5.6" width="5.6" x="29.2" y="221.2" /><circle cx="32.0" cy="224.0" fill="#111" r="2.0" /><circle cx="32.0" cy="213.84" fill="#e8b923" r="2.8" /><circle cx="32.0" cy="213.84" fill="#111" r="2.0" /><circle cx="32.0" cy="203.68" fill="#e8b923" r="2.8" /><circle cx="32.0" cy="203.68" fill="#111" r="2.0" /><circle cx="32.0" cy="193.52" fill="#e8b923" r="2.8" /><circle cx="32.0" cy="193.52" fill="#111" r="2.0" /><text fill="#fff" font-family="monospace" font-size="10" x="32" y="222.0">U2</text><rect fill="#e8b923" height="5.6" width="5.6" x="93.2" y="365.2" /><circle cx="96.0" cy="368.0" fill="#111" r="2.0" /><circle cx="96.0" cy="357.84000000000003" fill="#e8b923" r="2.8" /><circle cx="96.0" cy="357.84000000000003" fill="#111" r="2.0" /><text fill="#fff" font-family="monospace" font-size="10" x="96" y="366.0">C1</text><rect fill="#e8b923" height="5.6" width="5.6" x="93.2" y="309.2" /><circle cx="96.0" cy="312.0" fill="#111" r="2.0" /><circle cx="96.0" cy="301.84000000000003" fill="#e8b923" r="2.8" /><circle cx="96.0" cy="301.84000000000003" fill="#111" r="2.0" /><text fill="#fff" font-family="monospace" font-size="10" x="96" y="310.0">C2</text><rect fill="#e8b923" height="5.6" width="5.6" x="157.2" y="117.2" /><circle cx="160.0" cy="120.0" fill="#111" r="2.0" /><circle cx="160.0" cy="109.83999999999997" fill="#e8b923" r="2.8" /><circle cx="160.0" cy="109.83999999999997" fill="#111" r="2.0" /><circle cx="160.0" cy="99.68" fill="#e8b923" r="2.8" /><circle cx="160.0" cy="99.68" fill="#111" r="2.0" /><circle cx="160.0" cy="89.51999999999998" fill="#e8b923" r="2.8" /><circle cx="160.0" cy="89.51999999999998" fill="#111" r="2.0" /><rect fill="#e8b923" height="5.6" width="5.6" x="218.16" y="117.2" /><circle cx="220.96" cy="120.0" fill="#111" r="2.0" /><circle cx="220.96" cy="109.83999999999997" fill="#e8b923" r="2.8" /><circle cx="220.96" cy="109.83999999999997" fill="#111" r="2.0" /><circle cx="220.96" cy="99.68" fill="#e8b923" r="2.8" /><circle cx="220.96" cy="99.68" fill="#111" r="2.0" /><circle cx="220.96" cy="89.51999999999998" fill="#e8b923" r="2.8" /><circle cx="220.96" cy="89.51999999999998" fill="#111" r="2.0" /><text fill="#fff" font-family="monospace" font-size="10" x="160" y="118.0">U4</text><rect fill="#e8b923" height="5.6" width="5.6" x="437.2" y="125.2" /><circle cx="440.0" cy="128.0" fill="#111" r="2.0" /><circle cx="440.0" cy="117.83999999999997" fill="#e8b923" r="2.8" /><circle cx="440.0" cy="117.83999999999997" fill="#111" r="2.0" /><circle cx="440.0" cy="107.68" fill="#e8b923" r="2.8" /><circle cx="440.0" cy="107.68" fill="#111" r="2.0" /><circle cx="440.0" cy="97.51999999999998" fill="#e8b923" r="2.8" /><circle cx="440.0" cy="97.51999999999998" fill="#111" r="2.0" /><text fill="#fff" font-family="monospace" font-size="10" x="440" y="126.0">K1</text><rect fill="#e8b923" height="5.6" width="5.6" x="437.2" y="277.2" /><circle cx="440.0" cy="280.0" fill="#111" r="2.0" /><circle cx="440.0" cy="269.84000000000003" fill="#e8b923" r="2.8" /><circle cx="440.0" cy="269.84000000000003" fill="#111" r="2.0" /><circle cx="440.0" cy="259.68" fill="#e8b923" r="2.8" /><circle cx="440.0" cy="259.68" fill="#111" r="2.0" /><circle cx="440.0" cy="249.52" fill="#e8b923" r="2.8" /><circle cx="440.0" cy="249.52" fill="#111" r="2.0" /><circle cx="440.0" cy="239.36" fill="#e8b923" r="2.8" /><circle cx="440.0" cy="239.36" fill="#111" r="2.0" /><circle cx="440.0" cy="229.2" fill="#e8b923" r="2.8" /><circle cx="440.0" cy="229.2" fill="#111" r="2.0" /><circle cx="440.0" cy="219.04" fill="#e8b923" r="2.8" /><circle cx="440.0" cy="219.04" fill="#111" r="2.0" /><circle cx="440.0" cy="208.88" fill="#e8b923" r="2.8" /><circle cx="440.0" cy="208.88" fill="#111" r="2.0" /><text fill="#fff" font-family="monospace" font-size="10" x="440" y="278.0">U3</text><rect fill="#e8b923" height="5.6" width="5.6" x="157.2" y="77.2" /><circle cx="160.0" cy="80.0" fill="#111" r="2.0" /><circle cx="160.0" cy="69.83999999999997" fill="#e8b923" r="2.8" /><circle cx="160.0" cy="69.83999999999997" fill="#111" r="2.0" /><circle cx="160.0" cy="59.68000000000001" fill="#e8b923" r="2.8" /><circle cx="160.0" cy="59.68000000000001" fill="#111" r="2.0" /><circle cx="160.0" cy="49.51999999999998" fill="#e8b923" r="2.8" /><circle cx="160.0" cy="49.51999999999998" fill="#111" r="2.0" /><text fill="#fff" font-family="monospace" font-size="10" x="160" y="78.0">LCD1</text><rect fill="#e8b923" height="10.4" width="10.4" x="26.8" y="26.8" /><circle cx="32.0" cy="32.0" fill="#111" r="2.6" /><circle cx="52.32" cy="32.0" fill="#e8b923" r="5.2" /><circle cx="52.32" cy="32.0" fill="#111" r="2.6" /><circle cx="72.64" cy="32.0" fill="#e8b923" r="5.2" /><circle cx="72.64" cy="32.0" fill="#111" r="2.6" /><text fill="#fff" font-family="monospace" font-size="10" x="32" y="30.0">J5</text><rect fill="#e8b923" height="5.6" width="5.6" x="101.2" y="45.2" /><circle cx="104.0" cy="48.0" fill="#111" r="2.0" /><circle cx="104.0" cy="37.839999999999975" fill="#e8b923" r="2.8" /><circle cx="104.0" cy="37.839999999999975" fill="#111" r="2.0" /><text fill="#fff" font-family="monospace" font-size="10" x="104" y="46.0">R1</text><rect fill="#e8b923" height="10.4" width="10.4" x="362.8" y="362.8" /><circle cx="368.0" cy="368.0" fill="#111" r="2.6" /><circle cx="388.32" cy="368.0" fill="#e8b923" r="5.2" /><circle cx="388.32" cy="368.0" fill="#111" r="2.6" /><text fill="#fff" font-family="monospace" font-size="10" x="368" y="366.0">J2</text><rect fill="#e8b923" height="10.4" width="10.4" x="442.8" y="362.8" /><circle cx="448.0" cy="368.0" fill="#111" r="2.6" /><circle cx="468.32" cy="368.0" fill="#e8b923" r="5.2" /><circle cx="468.32" cy="368.0" fill="#111" r="2.6" /><text fill="#fff" font-family="monospace" font-size="10" x="448" y="366.0">J3</text><rect fill="#e8b923" height="10.4" width="10.4" x="522.8" y="362.8" /><circle cx="528.0" cy="368.0" fill="#111" r="2.6" /><circle cx="548.32" cy="368.0" fill="#e8b923" r="5.2" /><circle cx="548.32" cy="368.0" fill="#111" r="2.6" /><text fill="#fff" font-family="monospace" font-size="10" x="528" y="366.0">J4</text><rect fill="#e8b923" height="5.6" width="5.6" x="189.2" y="309.2" /><circle cx="192.0" cy="312.0" fill="#111" r="2.0" /><circle cx="192.0" cy="301.84000000000003" fill="#e8b923" r="2.8" /><circle cx="192.0" cy="301.84000000000003" fill="#111" r="2.0" /><text fill="#fff" font-family="monospace" font-size="10" x="192" y="310.0">D1</text><rect fill="#e8b923" height="5.6" width="5.6" x="365.2" y="317.2" /><circle cx="368.0" cy="320.0" fill="#111" r="2.0" /><circle cx="368.0" cy="309.84000000000003" fill="#e8b923" r="2.8" /><circle cx="368.0" cy="309.84000000000003" fill="#111" r="2.0" /><text fill="#fff" font-family="monospace" font-size="10" x="368" y="318.0">D2</text><rect fill="#e8b923" height="5.6" width="5.6" x="221.2" y="357.2" /><circle cx="224.0" cy="360.0" fill="#111" r="2.0" /><circle cx="224.0" cy="349.84000000000003" fill="#e8b923" r="2.8" /><circle cx="224.0" cy="349.84000000000003" fill="#111" r="2.0" /><text fill="#fff" font-family="monospace" font-size="10" x="224" y="358.0">SW1</text><rect fill="#e8b923" height="5.6" width="5.6" x="277.2" y="357.2" /><circle cx="280.0" cy="360.0" fill="#111" r="2.0" /><circle cx="280.0" cy="349.84000000000003" fill="#e8b923" r="2.8" /><circle cx="280.0" cy="349.84000000000003" fill="#111" r="2.0" /><text fill="#fff" font-family="monospace" font-size="10" x="280" y="358.0">SW2</text><rect fill="#e8b923" height="5.6" width="5.6" x="333.2" y="357.2" /><circle cx="336.0" cy="360.0" fill="#111" r="2.0" /><circle cx="336.0" cy="349.84000000000003" fill="#e8b923" r="2.8" /><circle cx="336.0" cy="349.84000000000003" fill="#111" r="2.0" /><text fill="#fff" font-family="monospace" font-size="10" x="336" y="358.0">SW3</text></svg>